0
SECTION
2
HEADER
9
$INSUNITS
70
4
0
ENDSEC
0
SECTION
2
ENTITIES
0
LINE
8
CUT
10
-4
20
-39
30
0
11
4
21
-39
31
0
0
LINE
8
CUT
10
4
20
-39
30
0
11
4
21
-29
31
0
0
LINE
8
CUT
10
4
20
-29
30
0
11
2.5
21
-24
31
0
0
LINE
8
CUT
10
2.5
20
-24
30
0
11
1.2
21
-18
31
0
0
LINE
8
CUT
10
1.2
20
-18
30
0
11
0.75
21
-11
31
0
0
LINE
8
CUT
10
0.75
20
-11
30
0
11
0.75
21
11
31
0
0
LINE
8
CUT
10
0.75
20
11
30
0
11
1.2
21
18
31
0
0
LINE
8
CUT
10
1.2
20
18
30
0
11
2.5
21
24
31
0
0
LINE
8
CUT
10
2.5
20
24
30
0
11
4
21
29
31
0
0
LINE
8
CUT
10
4
20
29
30
0
11
4
21
39
31
0
0
LINE
8
CUT
10
4
20
39
30
0
11
-4
21
39
31
0
0
LINE
8
CUT
10
-4
20
39
30
0
11
-4
21
29
31
0
0
LINE
8
CUT
10
-4
20
29
30
0
11
-2.5
21
24
31
0
0
LINE
8
CUT
10
-2.5
20
24
30
0
11
-1.2
21
18
31
0
0
LINE
8
CUT
10
-1.2
20
18
30
0
11
-0.75
21
11
31
0
0
LINE
8
CUT
10
-0.75
20
11
30
0
11
-0.75
21
-11
31
0
0
LINE
8
CUT
10
-0.75
20
-11
30
0
11
-1.2
21
-18
31
0
0
LINE
8
CUT
10
-1.2
20
-18
30
0
11
-2.5
21
-24
31
0
0
LINE
8
CUT
10
-2.5
20
-24
30
0
11
-4
21
-29
31
0
0
LINE
8
CUT
10
-4
20
-29
30
0
11
-4
21
-39
31
0
0
CIRCLE
8
CUT
10
0
20
-33.5
30
0
40
1.6
0
CIRCLE
8
CUT
10
0
20
33.5
30
0
40
1.6
0
ENDSEC
0
EOF
